<?xml version="1.0" encoding="utf-8"?>
<svg viewBox="0 0 16 16" xmlns="http://www.w3.org/2000/svg" xmlns:xlink="http://www.w3.org/1999/xlink" xmlns:bx="https://boxy-svg.com">
  <defs>
    <linearGradient gradientUnits="userSpaceOnUse" x1="8.075" y1="0.879" x2="8.075" y2="15.348" id="gradient-0" gradientTransform="matrix(-0.996206, -0.087012, 0.073033, -0.836153, 14.212666, 16.284427)">
      <stop offset="0" style="stop-color: rgba(218, 218, 218, 1)"/>
      <stop offset="1" style="stop-color: rgba(167, 167, 167, 1)"/>
    </linearGradient>
    <linearGradient id="color-0-1" gradientTransform="matrix(-1.406843, 2.387432, -0.450139, -0.688512, 1.240795, -0.773732)" xlink:href="#color-0"/>
    <linearGradient id="color-0" spreadMethod="pad" bx:pinned="true">
      <stop style="stop-color: rgb(144, 233, 144);" offset="0"/>
      <stop style="stop-color: rgb(251, 215, 106);" offset="0.499"/>
      <stop style="stop-color: rgb(250, 168, 168);" offset="1"/>
    </linearGradient>
    <linearGradient id="color-0-0" gradientTransform="matrix(-0.990667, 0.984451, -0.705199, -0.709222, 0.99491, 0.005925)" xlink:href="#color-0"/>
  </defs>
  <path style="stroke: rgb(0, 0, 0); stroke-width: 0px; fill: rgb(255, 255, 255);" d="M 2.33 1.043 L 0.61 2.33 C 0.61 2.33 1.084 4.105 1.097 4.105 C 1.11 4.105 2.439 4.566 2.466 4.579 C 2.493 4.592 4.146 4.837 4.2 4.864 C 4.254 4.891 4.308 6.002 4.308 6.002 C 4.308 6.002 1.395 10.947 1.409 11.001 C 1.423 11.055 1.03 12.992 1.03 12.992 C 1.03 12.992 1.45 14.727 1.504 14.754 C 1.558 14.781 3.617 15.296 3.658 15.296 C 3.699 15.296 5.893 15.35 6.042 15.35 C 6.191 15.35 9.185 15.417 9.28 15.417 C 9.375 15.417 11.543 15.214 11.556 15.241 C 11.569 15.268 13.968 15.079 13.981 15.079 C 13.994 15.079 15.377 12.952 15.377 12.952 L 14.266 10.391 L 11.624 10.364 L 14.496 5.731 C 14.496 5.731 15.052 2.506 15.065 2.493 C 15.078 2.48 13.9 0.908 13.887 0.894 C 13.874 0.88 2.371 1.03 2.33 1.043 Z"/>
  <path fill="currentColor" d="M5 8.25a.75.75 0 0 1 .75-.75h4a.75.75 0 0 1 0 1.5h-4A.75.75 0 0 1 5 8.25ZM4 10.5A.75.75 0 0 0 4 12h4a.75.75 0 0 0 0-1.5H4Z" style="fill: url('#color-0-1');"/>
  <path d="M13-.005c1.654 0 3 1.328 3 3c0 .982-.338 1.933-.783 2.818c-.443.879-1.028 1.758-1.582 2.588l-.011.017c-.568.853-1.104 1.659-1.501 2.446c-.398.789-.623 1.494-.623 2.136a1.5 1.5 0 1 0 2.333-1.248a.75.75 0 0 1 .834-1.246A3 3 0 0 1 13 16H3a3 3 0 0 1-3-3c0-1.582.891-3.135 1.777-4.506c.209-.322.418-.637.623-.946c.473-.709.923-1.386 1.287-2.048H2.51c-.576 0-1.381-.133-1.907-.783A2.68 2.68 0 0 1 0 2.995a3 3 0 0 1 3-3Zm0 1.5a1.5 1.5 0 0 0-1.5 1.5c0 .476.223.834.667 1.132A.75.75 0 0 1 11.75 5.5H5.368c-.467 1.003-1.141 2.015-1.773 2.963c-.192.289-.381.571-.558.845C2.13 10.711 1.5 11.916 1.5 13A1.5 1.5 0 0 0 3 14.5h7.401A2.989 2.989 0 0 1 10 13c0-.979.338-1.928.784-2.812c.441-.874 1.023-1.748 1.575-2.576l.017-.026c.568-.853 1.103-1.658 1.501-2.448c.398-.79.623-1.497.623-2.143c0-.838-.669-1.5-1.5-1.5Zm-10 0a1.5 1.5 0 0 0-1.5 1.5c0 .321.1.569.27.778c.097.12.325.227.74.227h7.674A2.737 2.737 0 0 1 10 2.995c0-.546.146-1.059.401-1.5Z" style="fill: url('#color-0-0'); fill-rule: nonzero; paint-order: fill;"/>
</svg>
